<?xml version="1.0" standalone="no"?>
<!DOCTYPE svg PUBLIC "-//W3C//DTD SVG 20010904//EN"
 "http://www.w3.org/TR/2001/REC-SVG-20010904/DTD/svg10.dtd">
<svg version="1.0" xmlns="http://www.w3.org/2000/svg"
 width="1280.000000pt" height="807.000000pt" viewBox="0 0 1280.000000 807.000000"
 preserveAspectRatio="xMidYMid meet">
<metadata>
Created by potrace 1.15, written by Peter Selinger 2001-2017
</metadata>
<g transform="translate(0.000000,807.000000) scale(0.100000,-0.100000)"
fill="#000000" stroke="none">
<path d="M1361 7884 c0 -11 3 -14 6 -6 3 7 2 16 -1 19 -3 4 -6 -2 -5 -13z"/>
<path d="M1371 7844 c0 -11 3 -14 6 -6 3 7 2 16 -1 19 -3 4 -6 -2 -5 -13z"/>
<path d="M1380 7811 c0 -27 182 -745 219 -861 137 -439 442 -1108 729 -1599
l55 -94 24 27 c12 15 23 35 23 45 0 19 -43 91 -113 185 -70 95 -442 847 -567
1146 -79 192 -225 644 -315 980 -45 167 -55 198 -55 171z"/>
<path d="M9003 7330 c-182 -33 -346 -157 -432 -328 -23 -45 -56 -105 -75 -134
-43 -67 -208 -236 -267 -274 -24 -15 -73 -51 -109 -79 -198 -155 -463 -329
-635 -417 -123 -64 -270 -152 -465 -282 -316 -210 -404 -274 -533 -390 l-88
-79 -157 17 c-86 10 -173 21 -192 26 -19 5 -118 21 -220 36 -167 24 -205 26
-385 21 -174 -5 -300 -19 -375 -42 -9 -3 -65 24 -125 60 l-110 65 -105 0
c-111 0 -178 -9 -465 -61 -170 -31 -193 -33 -415 -33 -251 0 -394 11 -665 51
-115 17 -219 25 -320 26 -146 2 -152 1 -207 -26 -64 -31 -188 -143 -243 -216
-37 -51 -105 -182 -105 -203 0 -7 -4 -19 -9 -27 -10 -16 -104 38 -616 352
-305 188 -407 245 -527 298 -98 43 -609 231 -615 226 -4 -4 204 -87 302 -121
39 -13 126 -51 194 -85 68 -33 129 -61 135 -61 6 0 49 -23 96 -50 47 -28 105
-57 130 -66 25 -9 58 -21 74 -27 15 -6 59 -34 97 -64 38 -29 108 -73 157 -99
48 -25 123 -69 167 -99 44 -29 112 -73 150 -98 39 -25 107 -75 151 -111 l81
-65 6 -103 c3 -67 19 -164 45 -278 22 -96 45 -205 51 -241 6 -37 24 -95 40
-130 16 -35 31 -75 32 -89 3 -16 23 -38 57 -64 43 -32 52 -44 52 -69 0 -64
193 -266 305 -318 58 -28 74 -31 126 -26 67 6 91 20 87 51 -3 22 -9 21 94 14
29 -3 35 2 56 39 13 24 26 68 29 98 4 33 11 55 18 55 7 0 81 -25 166 -55 85
-30 156 -55 158 -55 2 0 -3 -8 -12 -18 -30 -33 -56 -108 -72 -207 -20 -124
-40 -182 -95 -270 -98 -160 -123 -210 -201 -410 -158 -407 -150 -382 -159
-550 -8 -150 -8 -150 -65 -305 -56 -150 -79 -232 -165 -575 -22 -88 -52 -203
-66 -255 -18 -65 -28 -130 -31 -207 -5 -110 -5 -112 20 -137 l26 -26 -24 6
c-17 4 -26 1 -33 -13 -14 -26 -53 -209 -48 -225 3 -7 -21 -30 -54 -53 -83 -56
-226 -171 -287 -230 -28 -27 -60 -55 -70 -61 -26 -15 -53 -73 -53 -112 0 -25
8 -42 30 -62 17 -15 30 -35 30 -43 0 -22 25 -38 68 -44 43 -6 72 14 72 47 0
16 -5 18 -29 14 -16 -3 -31 -2 -34 3 -8 13 61 83 82 83 11 0 24 12 32 31 7 18
29 52 49 78 20 25 60 81 89 123 69 101 121 148 163 148 42 0 112 42 136 82 24
39 32 76 42 183 5 44 18 106 29 138 17 45 23 96 31 250 10 206 21 278 69 483
17 71 40 175 51 230 27 134 53 207 99 287 29 48 42 86 51 138 23 151 292 763
370 844 23 24 43 57 50 83 7 29 32 66 80 120 80 89 97 119 105 186 l7 49 22
-55 c52 -127 114 -210 213 -285 123 -94 153 -111 238 -135 73 -21 79 -25 87
-55 6 -24 16 -34 42 -43 29 -9 40 -22 71 -88 21 -42 38 -84 39 -92 3 -22 49
-91 82 -122 37 -34 129 -80 262 -130 138 -51 154 -60 317 -175 l141 -98 -32
-71 c-54 -117 -170 -405 -192 -474 -11 -36 -30 -114 -42 -175 -32 -161 -64
-276 -136 -496 -35 -107 -64 -204 -64 -215 0 -10 -14 -32 -30 -47 -16 -16 -30
-36 -30 -45 -1 -36 -30 -98 -55 -115 -40 -30 -35 -81 12 -125 l38 -35 -70
-141 c-64 -128 -70 -146 -74 -213 -6 -129 31 -171 142 -158 45 6 56 10 44 17
-22 12 -21 39 2 96 15 36 21 77 23 182 3 110 8 144 25 181 18 40 26 47 57 53
34 7 36 9 36 49 1 27 11 62 30 97 36 66 37 74 8 94 l-22 16 26 0 c63 0 72 23
37 91 -19 39 -20 42 -3 92 9 29 36 99 59 157 24 58 62 157 85 220 23 63 78
189 122 280 86 179 91 189 185 360 35 63 82 153 106 200 42 85 42 86 41 190
-1 125 -8 142 -91 223 -80 79 -133 112 -228 143 -44 15 -105 39 -135 54 -30
15 -93 41 -140 58 -131 46 -226 112 -161 112 10 0 31 10 46 22 32 25 28 27 78
-52 14 -22 42 -45 77 -62 64 -32 226 -84 288 -94 24 -4 58 -19 79 -35 20 -16
41 -29 48 -29 6 0 50 -27 96 -61 92 -66 129 -85 202 -100 39 -9 52 -8 72 5 20
13 33 14 67 6 98 -22 211 -7 350 49 99 39 279 139 373 207 57 41 80 52 93 45
9 -5 55 -18 102 -29 240 -58 449 -87 505 -69 25 7 42 7 60 -1 14 -7 41 -12 60
-12 19 0 106 -18 193 -39 207 -53 279 -64 364 -59 63 3 74 7 91 30 16 22 23
24 51 17 134 -35 331 -58 491 -58 90 -1 111 5 194 53 14 9 30 11 40 6 74 -37
202 -91 229 -96 26 -5 38 -2 56 15 21 20 33 22 132 21 60 -1 240 -1 400 -2
337 0 402 8 449 56 17 17 35 30 40 29 83 -11 84 -12 116 -75 17 -34 66 -120
108 -192 123 -208 162 -281 235 -441 37 -82 92 -188 121 -235 42 -69 268 -515
363 -720 29 -62 139 -155 169 -143 7 3 13 1 13 -4 0 -6 12 -16 28 -24 21 -10
102 -14 352 -17 l324 -4 51 -26 c34 -17 74 -28 123 -32 90 -8 111 -26 162
-135 45 -98 54 -130 40 -155 -10 -19 -7 -20 34 -20 51 0 76 -19 76 -58 l1 -27
25 30 c76 89 71 180 -17 305 -22 32 -59 71 -81 85 -45 30 -119 45 -163 33 -16
-4 -31 -6 -32 -4 -2 2 16 24 41 49 l44 46 -41 15 c-23 9 -71 20 -107 26 -36 6
-94 21 -130 32 -58 19 -93 21 -335 23 -218 2 -275 0 -297 -11 -27 -14 -28 -14
-28 11 0 14 -12 48 -26 76 -14 28 -24 52 -22 53 2 1 24 15 51 30 26 15 47 29
47 33 0 3 -29 2 -64 -2 l-65 -6 -20 40 c-29 56 -27 66 22 81 l42 13 -35 13
c-19 7 -46 13 -60 13 -21 1 -31 12 -58 67 -18 37 -32 67 -30 68 2 1 15 7 31
14 39 17 34 29 -20 45 -42 12 -48 18 -69 65 l-23 52 41 28 42 27 -56 3 -56 3
-22 52 c-12 29 -24 58 -27 64 -3 8 14 22 43 35 l49 23 -63 3 -62 3 -30 59
c-17 33 -30 63 -30 67 0 4 24 22 53 38 49 29 51 30 24 33 -15 2 -48 -1 -72 -6
l-44 -9 -48 75 -48 75 60 61 c57 59 59 61 34 64 -15 2 -53 -6 -85 -17 l-59
-20 -17 22 c-19 24 -58 121 -58 143 0 8 9 14 20 14 11 0 37 7 58 16 36 15 36
16 14 25 -13 5 -50 10 -82 10 -57 2 -59 3 -90 45 l-31 43 23 5 c13 2 97 14
187 26 90 12 212 34 270 47 58 14 122 27 142 29 88 7 251 61 311 102 24 16 63
32 86 36 24 4 60 14 80 23 l37 16 -27 10 c-35 13 -35 21 -2 36 18 8 25 17 21
30 -4 16 4 19 67 25 160 16 473 99 590 158 77 38 171 105 217 155 20 21 61 76
90 123 l54 85 0 90 c-1 76 -5 99 -28 148 -32 71 -78 131 -118 154 -16 9 -48
47 -72 83 -37 55 -62 77 -164 147 -142 97 -252 153 -383 193 -103 32 -377 92
-615 135 -82 15 -178 32 -213 38 l-64 12 -51 84 -51 83 22 17 c73 55 73 53 11
46 l-56 -6 -43 71 -42 72 33 34 c28 29 30 34 13 34 -10 0 -33 -4 -49 -9 -27
-7 -32 -5 -57 30 l-28 39 28 14 c16 8 34 22 41 30 12 14 10 16 -10 16 -13 0
-38 -4 -56 -9 -31 -9 -32 -9 -72 62 l-41 70 25 27 c38 40 33 54 -18 47 l-43
-6 -31 54 -31 53 46 42 47 41 -53 -6 c-29 -3 -58 -8 -65 -10 -7 -3 -30 26 -54
66 l-43 71 32 26 c17 15 36 30 42 34 23 15 -7 21 -59 11 l-56 -10 -39 59 c-22
32 -40 61 -40 65 0 4 14 22 32 40 l32 33 -34 -6 c-19 -4 -42 -10 -51 -15 -12
-6 -26 6 -58 52 l-43 60 26 38 c44 63 30 73 -45 35 -26 -13 -27 -12 -82 65
l-55 79 42 42 c37 38 38 42 16 36 -94 -23 -95 -23 -130 38 l-32 56 24 20 23
19 -35 1 c-33 0 -40 6 -89 76 -53 77 -55 93 -11 94 23 1 -7 16 -49 25 -37 8
-75 46 -103 104 -50 100 -76 138 -118 168 -105 75 -107 78 -125 161 -21 93
-44 135 -89 156 -55 26 -85 21 -222 -40 -8 -4 -10 5 -5 28 10 45 -4 83 -37 97
-36 17 -107 21 -169 11z m391 -418 c6 -18 16 -36 22 -40 6 -4 19 -23 29 -42
10 -19 28 -48 41 -65 12 -16 40 -67 62 -112 22 -45 60 -108 85 -140 25 -32 76
-116 113 -188 38 -71 87 -150 110 -175 23 -25 53 -68 67 -96 15 -29 48 -80 75
-115 26 -35 85 -118 130 -184 45 -66 109 -151 142 -190 34 -38 77 -99 96 -135
19 -36 62 -101 97 -145 35 -44 90 -123 122 -175 32 -52 78 -126 101 -165 24
-38 66 -121 93 -183 47 -104 49 -112 28 -107 -12 2 -98 14 -192 25 -93 11
-183 27 -200 35 -17 7 -144 25 -285 40 -259 26 -380 41 -385 47 -1 2 -19 34
-40 72 -21 38 -71 113 -110 165 -89 120 -119 172 -138 238 -21 72 -32 88 -72
113 -28 17 -44 21 -72 15 -27 -5 -52 -1 -94 16 -52 21 -58 26 -70 68 -16 51
-30 61 -124 86 -87 22 -179 20 -233 -7 -34 -16 -53 -35 -81 -81 -91 -151 -144
-220 -250 -329 -75 -78 -121 -118 -135 -118 -12 0 -168 27 -346 60 -179 33
-340 62 -358 65 l-33 6 23 39 c13 21 48 60 80 86 87 75 282 333 344 454 15 30
52 93 82 138 29 46 82 131 117 189 93 155 175 253 294 352 58 49 115 99 126
111 30 33 83 57 156 70 186 34 264 72 399 197 63 59 65 61 47 80 -17 20 -16
21 30 42 66 29 94 24 107 -17z m-155 -1760 c24 -25 49 -72 75 -137 22 -55 48
-113 58 -130 10 -16 18 -33 18 -36 0 -6 -266 46 -354 69 l-30 8 50 24 c53 27
51 22 71 160 6 44 13 57 33 67 36 18 39 17 79 -25z"/>
</g>
</svg>
